<?xml version="1.0" encoding="UTF-8"?>
<svg xmlns="http://www.w3.org/2000/svg" version="1.1" width="2000" height="2000" style="background: transparent;">

<path d="M0 0 C3.03700521 1.45046898 5.09902283 2.8768113 7.4375 5.3125 C8.27087891 6.17294922 8.27087891 6.17294922 9.12109375 7.05078125 C10.05115234 8.01564453 10.05115234 8.01564453 11 9 C13.756677 11.7754299 16.53553494 14.52654387 19.33203125 17.26171875 C20.49224929 18.40358306 21.65240471 19.54551099 22.8125 20.6875 C23.40998047 21.26822266 24.00746094 21.84894531 24.62304688 22.44726562 C26.12014673 23.92725576 27.56488731 25.45982782 29 27 C29 27.66 29 28.32 29 29 C29.5892922 29.28424408 30.1785844 29.56848817 30.78573394 29.86134571 C65.222747 47.57008152 96.42406508 76.70787291 125.55526614 102.08688664 C127.24470546 103.55789002 128.93713556 105.02539816 130.62973976 106.4927578 C189.13974367 157.33200172 226.7569192 208.52318408 232.39507332 287.66210952 C234.91957273 326.19833718 234.34232771 364.69236892 232.75 403.25 C232.66950122 405.25126693 232.58910601 407.25253803 232.50881386 409.25381327 C230.40955513 460.99145832 226.5795247 512.52316808 221 564 C232.31066495 563.91509137 243.62119656 563.82001943 254.93167019 563.71247292 C260.18529634 563.66282706 265.43890541 563.61649811 270.69262695 563.578125 C275.77614415 563.54086675 280.85950613 563.49440548 285.94288826 563.44193649 C287.86861471 563.42360524 289.79437415 563.40842167 291.7201519 563.39665604 C319.82917364 563.21900591 346.64833857 559.5088679 369 541 C369.83789062 540.31292969 370.67578125 539.62585937 371.5390625 538.91796875 C387.99467505 524.78040688 397.5178185 507.76183597 403 487 C403.55107422 485.23076172 403.55107422 485.23076172 404.11328125 483.42578125 C405.61735352 477.31257459 405.288326 471.00352551 405.25 464.75 C405.25773437 463.50347656 405.26546875 462.25695313 405.2734375 460.97265625 C405.24851132 449.04547791 403.19192801 438.43576233 400 427 C407.52185511 419.43188786 415.04904118 411.86912345 422.58315849 404.31321716 C426.08104896 400.80487127 429.57704734 397.29468165 433.06884766 393.78027344 C436.43611032 390.39134507 439.80817715 387.0072675 443.18368912 383.6265564 C444.47328601 382.33325244 445.76111585 381.0381841 447.04717636 379.74136353 C448.84310556 377.93100281 450.64510816 376.12691039 452.44873047 374.32421875 C452.98388275 373.78187592 453.51903503 373.23953308 454.07040405 372.68075562 C457.77189568 369 457.77189568 369 460 369 C471.41084473 388.6231951 480.28004032 410.5492574 484 433 C484.20367188 434.17691406 484.40734375 435.35382813 484.6171875 436.56640625 C491.41864684 481.98711073 479.81298263 530.63215422 452.72705078 567.74414062 C428.05531363 600.93252119 395.53455403 623.99328326 356 636 C355.01644531 636.30679688 354.03289062 636.61359375 353.01953125 636.9296875 C335.8824148 641.95934044 318.46453602 643.15417049 300.70849609 643.11352539 C298.973053 643.11324291 297.23760978 643.11340244 295.50216675 643.1139679 C290.81694733 643.11425349 286.13175379 643.10839528 281.44654036 643.10139394 C276.54050295 643.09512073 271.63446487 643.09455347 266.72842407 643.09336853 C257.44976798 643.09026688 248.17112375 643.08206927 238.89247286 643.07201904 C228.32412443 643.06082161 217.75577541 643.05533832 207.18742251 643.05032361 C185.45827507 643.03988564 163.72913828 643.02230886 142 643 C142.02028753 642.19505936 142.04057506 641.39011873 142.06147736 640.56078595 C143.26331079 592.57041203 144.14640564 544.58282949 144.63067217 496.57958676 C144.689425 490.78228113 144.75077015 484.98500564 144.8137207 479.18774414 C144.8262064 478.03389008 144.8386921 476.88003602 144.85155616 475.69121668 C145.05839763 457.14409905 145.47386168 438.60747308 145.97020956 420.06610044 C146.47692734 400.95855888 146.75074635 381.85727149 146.82025415 362.74310666 C146.86556574 352.03530458 147.01021802 341.35014806 147.42326927 330.64967918 C149.76770524 275.51263992 149.76770524 275.51263992 123.60634619 228.9353705 C103.71369108 208.05158878 103.71369108 208.05158878 80 192 C80 340.83 80 489.66 80 643 C38.42 643 -3.16 643 -46 643 C-43.81113471 640.81113471 -42.4441625 640.33145586 -39.5625 639.3125 C-25.24871938 633.72311304 -12.31781362 623.41668112 -5.75 609.31640625 C-4.77125799 606.89473943 -3.8728664 604.46140051 -3 602 C-2.65839832 601.33205093 -2.31679664 600.66410186 -1.96484339 599.97591192 C-0.56726242 595.66528709 -0.72088307 591.56590018 -0.73828697 587.06119061 C-0.73429091 586.04746229 -0.73029485 585.03373398 -0.72617769 583.98928663 C-0.71515365 580.57090857 -0.71841174 577.15269104 -0.7215271 573.73429871 C-0.71652707 571.26747574 -0.71065214 568.80065442 -0.70397437 566.33383542 C-0.69143949 560.95949592 -0.6851159 555.58520189 -0.68421364 550.21085167 C-0.68283858 542.21937828 -0.67006095 534.22795172 -0.6549259 526.236494 C-0.62979136 512.79412884 -0.61393552 499.35176762 -0.60334396 485.90938377 C-0.59282479 472.59723244 -0.57819621 459.28509611 -0.55806351 445.9729557 C-0.55681464 445.14565037 -0.55556577 444.31834505 -0.55427906 443.46596986 C-0.54791542 439.26460775 -0.54147821 435.06324575 -0.53501268 430.8618838 C-0.48933417 401.0935586 -0.4528933 371.32522854 -0.421875 341.55688477 C-0.39171759 312.63500251 -0.3573821 283.71313016 -0.31738281 254.79125977 C-0.31615181 253.89996602 -0.31492081 253.00867227 -0.3136525 252.09036962 C-0.30128578 243.13973785 -0.28883405 234.18910621 -0.27632002 225.23847465 C-0.25082879 207.00454957 -0.22590508 188.77062372 -0.20132446 170.53669739 C-0.20019355 169.69830695 -0.19906264 168.85991651 -0.19789747 167.9961203 C-0.12242561 111.99742501 -0.06022497 55.99871351 0 0 Z " fill="#020202" transform="translate(686,679)"/>
<path d="M0 0 C0.00089563 1.88109837 0.00089563 1.88109837 0.00180936 3.80019873 C0.02838907 59.07545152 0.05991577 114.3506998 0.11663818 169.62593079 C0.11749569 170.46292988 0.1183532 171.29992898 0.1192367 172.16229168 C0.13790285 190.35306263 0.15745541 208.54383253 0.17792095 226.73460154 C0.18795203 235.65550566 0.19778725 244.57641 0.20751953 253.49731445 C0.20897724 254.82891176 0.20897724 254.82891176 0.2104644 256.18741001 C0.24186485 284.95511789 0.26033551 313.72281638 0.27209247 342.49053843 C0.28424383 372.05607566 0.30945672 401.62157373 0.35107614 431.18708486 C0.35695013 435.36415699 0.36267498 439.54122931 0.36830902 443.71830177 C0.36942248 444.54039981 0.37053594 445.36249785 0.37168314 446.20950795 C0.38921472 459.43661302 0.39300013 472.66368793 0.39162921 485.89080306 C0.39054449 499.1924068 0.40397934 512.4939334 0.43216428 525.79550787 C0.44846485 533.6957182 0.45370346 541.5957539 0.44297175 549.49597473 C0.4361796 555.4000414 0.45025335 561.30394008 0.47233662 567.20797334 C0.47802486 569.59310838 0.47699772 571.97827107 0.46851245 574.3633978 C0.40575225 593.66057423 2.34351147 609.24206511 15.96875 624.0625 C24.5818423 632.27806496 34.98463017 637.71401974 46 642 C46 642.33 46 642.66 46 643 C4.42 643 -37.16 643 -80 643 C-80 494.17 -80 345.34 -80 192 C-85.85147067 197.00516321 -85.85147067 197.00516321 -91.39086056 202.26781273 C-92.1920453 203.06700642 -92.99323004 203.86620011 -93.8186931 204.68961179 C-94.67765753 205.55148906 -95.53662195 206.41336632 -96.4216156 207.30136108 C-97.35047941 208.22937047 -98.27934322 209.15737985 -99.23635441 210.11351073 C-101.79954063 212.6744722 -104.35961728 215.23852214 -106.91917503 217.80310941 C-109.68549525 220.57376307 -112.45472034 223.34151074 -115.22358704 226.10961914 C-120.01549044 230.90099915 -124.80556493 235.69420125 -129.59438896 240.48865891 C-136.51815954 247.42056936 -143.44470197 254.34970468 -150.37191594 261.27817388 C-161.61179982 272.52024436 -172.84945043 283.76454446 -184.08569336 295.01025391 C-194.9982561 305.93200088 -205.91187252 316.85269318 -216.8269043 327.77197266 C-217.50012623 328.44545732 -218.17334817 329.11894198 -218.86697077 329.81283526 C-222.24445921 333.19162877 -225.62196834 336.5704016 -228.99948776 339.94916415 C-257.00286683 367.96290366 -285.00262024 395.98026476 -313 424 C-325.46162806 417.9136141 -338.11977749 407.80250092 -344 395 C-348.90412453 378.02141046 -346.67412113 358.64406366 -345.85394287 341.22711182 C-345.57437316 334.6518413 -345.45373307 328.07367925 -345.31835938 321.49414062 C-345.03143343 308.65549163 -344.57807044 295.82867864 -344 283 C-342.8910562 283.94267042 -341.78323936 284.88666667 -340.67588806 285.83120728 C-339.75033064 286.61952155 -339.75033064 286.61952155 -338.8060751 287.42376137 C-336.26266615 289.64350264 -333.88344336 292.00482029 -331.50390625 294.3984375 C-331.02549789 294.8782608 -330.54708954 295.35808411 -330.05418396 295.85244751 C-328.55455121 297.35759458 -327.05846872 298.86621214 -325.5625 300.375 C-324.53474017 301.40778595 -323.50674715 302.44033991 -322.47851562 303.47265625 C-319.98298402 305.97910287 -317.49061918 308.4886708 -315 311 C-312.20434329 309.72243751 -310.14090966 308.39451087 -307.96003723 306.23419189 C-307.38696838 305.67109818 -306.81389954 305.10800446 -306.22346497 304.52784729 C-305.60678452 303.91183151 -304.99010406 303.29581573 -304.35473633 302.66113281 C-303.69561249 302.01033249 -303.03648865 301.35953217 -302.35739136 300.68901062 C-300.17677682 298.53251299 -298.00391511 296.3684133 -295.83203125 294.203125 C-294.31238524 292.69245135 -292.79266466 291.18185272 -291.27287292 289.67132568 C-288.08238823 286.49734328 -284.89633659 283.31898046 -281.71264648 280.13818359 C-277.66089792 276.09178807 -273.59330494 272.0617431 -269.52138233 268.0356636 C-266.37182037 264.91608015 -263.23380394 261.78506927 -260.09869957 258.65096283 C-258.6058991 257.16233155 -257.10903302 255.67776442 -255.60782814 254.19760895 C-243.08684521 241.83815139 -233.59424745 229.53572688 -227 213 C-226.58621094 212.02933594 -226.17242188 211.05867187 -225.74609375 210.05859375 C-217.8638118 188.11454052 -222.26674938 160.65181512 -232 140 C-235.93192426 132.38924085 -240.55113229 125.59261588 -246 119 C-246.4228125 118.43152344 -246.845625 117.86304688 -247.28125 117.27734375 C-261.04672281 99.52491997 -285.15156189 88.69660954 -306.86929321 85.43778992 C-315.60539036 84.38575383 -324.48485486 84.63500642 -333.26953125 84.5859375 C-335.40330223 84.56719491 -337.53706605 84.54761928 -339.67082214 84.5272522 C-345.24536889 84.47625129 -350.81993958 84.43645547 -356.39459229 84.39910889 C-363.1054703 84.35177238 -369.81623249 84.29031375 -376.52701569 84.23126221 C-386.68462954 84.14344134 -396.84222561 84.07339711 -407 84 C-407 99.18 -407 114.36 -407 130 C-410.27042395 128.36478803 -411.83753025 127.41725507 -414.30812073 124.97949219 C-414.94034546 124.3601329 -415.57257019 123.74077362 -416.22395325 123.10264587 C-416.9061644 122.42424149 -417.58837555 121.7458371 -418.29125977 121.046875 C-419.01854279 120.33112808 -419.74582581 119.61538116 -420.49514771 118.87794495 C-422.89967723 116.50772895 -425.29623444 114.12966996 -427.69140625 111.75 C-428.51143568 110.93687347 -429.33146511 110.12374695 -430.17634392 109.28598022 C-434.51677632 104.98138638 -438.85102536 100.67067447 -443.18041992 96.35498047 C-447.64636784 91.90557084 -452.13285634 87.47749623 -456.62449741 83.05404663 C-460.08067572 79.64271475 -463.52109078 76.2158089 -466.95747185 72.7845459 C-468.60420194 71.14569732 -470.25679232 69.51271478 -471.91537666 67.88586426 C-474.23985945 65.60294421 -476.54107488 63.2987486 -478.83813477 60.98828125 C-479.52237015 60.32607071 -480.20660553 59.66386017 -480.91157532 58.98158264 C-485.71952347 54.07804942 -487.42603302 49.60952817 -489 43 C-491.51269728 36.87226083 -494.65898118 31.96116436 -499 27 C-499 26.34 -499 25.68 -499 25 C-499.58523438 24.73775635 -500.17046875 24.4755127 -500.7734375 24.20532227 C-503.10958232 22.94067896 -504.70661565 21.54317629 -506.625 19.71484375 C-511.02408726 15.77994589 -515.74139386 13.18372533 -521 10.5625 C-521.87011719 10.11712891 -522.74023438 9.67175781 -523.63671875 9.21289062 C-525.75283342 8.13157928 -527.87362126 7.06094229 -530 6 C-530 5.67 -530 5.34 -530 5 C-501.37974429 4.88549561 -472.75951601 4.7972255 -444.13907561 4.74467335 C-440.74644391 4.73842116 -437.35381267 4.73194941 -433.96118164 4.7253418 C-432.94822803 4.72337447 -432.94822803 4.72337447 -431.91481071 4.7213674 C-421.03553148 4.69971662 -410.15638678 4.66035339 -399.27718688 4.61423602 C-388.08205153 4.56718152 -376.88696148 4.5400173 -365.69172615 4.52955753 C-359.41699097 4.52308343 -353.14255905 4.50804966 -346.86792183 4.47134972 C-340.94091065 4.43696963 -335.01432258 4.42703034 -329.08722115 4.43446159 C-326.93203416 4.43310556 -324.77683041 4.42342716 -322.6217308 4.40397263 C-306.88427234 4.26908661 -292.30143231 6.34808107 -277 10 C-275.93916769 10.25231648 -274.87833538 10.50463296 -273.78535664 10.76459539 C-266.48363248 12.54194735 -259.83316862 14.87902559 -253 18 C-252.17000488 18.37157227 -251.34000977 18.74314453 -250.48486328 19.12597656 C-231.83666611 27.51619847 -216.28624475 37.50366547 -201 51 C-200.15566406 51.721875 -199.31132813 52.44375 -198.44140625 53.1875 C-193.49838404 57.45533705 -189.14988131 61.96219363 -185 67 C-184.38640625 67.72574219 -183.7728125 68.45148438 -183.140625 69.19921875 C-165.79233707 90.19064715 -152.24077649 115.15251344 -147 142 C-143.30029204 142 -142.44143776 140.79528831 -139.90549797 138.2834177 C-139.09188013 137.45464571 -139.09188013 137.45464571 -138.26182556 136.60913086 C-137.68080898 136.02926642 -137.09979241 135.44940199 -136.50116926 134.8519659 C-134.54558114 132.89663702 -132.60094041 130.93076573 -130.65600586 128.96484375 C-129.26046996 127.56518983 -127.86425931 126.16620839 -126.46742249 124.76785278 C-123.45595215 121.75027658 -120.4492619 118.72804299 -117.44611931 115.70217896 C-112.70216983 110.92254284 -107.94743279 106.15373881 -103.1910553 101.38647461 C-93.95694731 92.12820339 -84.73416049 82.85870007 -75.51235199 73.58818054 C-63.77125085 61.78630236 -52.02457576 49.98998643 -40.26884562 38.20267963 C-35.53698314 33.45738557 -30.81042206 28.70689021 -26.08788478 23.95231628 C-23.15509802 21.00148948 -20.2182664 18.05471398 -17.28034019 15.10900497 C-15.91356925 13.73686939 -14.54854128 12.36299523 -13.1853447 10.9873085 C-11.33182604 9.11724634 -9.4723421 7.2533304 -7.6111908 5.39086914 C-7.06654818 4.83835448 -6.52190556 4.28583982 -5.96075863 3.7165823 C-2.22815716 0 -2.22815716 0 0 0 Z " fill="#020202" transform="translate(1314,679)"/>
<path d="M0 0 C2.475 0.495 2.475 0.495 5 1 C2.90245907 10.7149264 -0.38244941 19.77466062 -4 29 C-8.875 24.375 -8.875 24.375 -10 21 C-10.66 21 -11.32 21 -12 21 C-12.99 20.01 -13.98 19.02 -15 18 C-13.35 22.62 -11.7 27.24 -10 32 C-13.33233749 33.11077916 -13.74695874 32.96329725 -16.8125 31.6875 C-17.50988281 31.40648437 -18.20726562 31.12546875 -18.92578125 30.8359375 C-19.61027344 30.56007813 -20.29476563 30.28421875 -21 30 C-22.99640639 29.32264783 -24.99504414 28.65161065 -27 28 C-26.278125 28.70125 -25.55625 29.4025 -24.8125 30.125 C-17 37.95982143 -17 37.95982143 -17 41 C-20.26488369 40.41787177 -21.90649106 39.47004122 -24.234375 37.12890625 C-24.80800781 36.55462891 -25.38164063 35.98035156 -25.97265625 35.38867188 C-26.55917969 34.78603516 -27.14570312 34.18339844 -27.75 33.5625 C-28.35199219 32.96373047 -28.95398437 32.36496094 -29.57421875 31.74804688 C-34 27.26706881 -34 27.26706881 -34 25 C-33.34 25 -32.68 25 -32 25 C-32 24.34 -32 23.68 -32 23 C-27.02906176 23.41153737 -22.55491614 23.79600832 -18 26 C-18.4640625 24.453125 -18.4640625 24.453125 -18.9375 22.875 C-20.78297619 16.25535714 -20.78297619 16.25535714 -21 13 C-19.5625 10.625 -19.5625 10.625 -18 9 C-14.78956118 10.38188453 -12.95063635 11.92421903 -10.75 14.625 C-10.22921875 15.25664063 -9.7084375 15.88828125 -9.171875 16.5390625 C-8.59179688 17.26222656 -8.59179688 17.26222656 -8 18 C-8.05800781 17.40832031 -8.11601563 16.81664062 -8.17578125 16.20703125 C-8.54914248 9.66787599 -8.54914248 9.66787599 -5.6875 6.1875 C-4.800625 5.465625 -3.91375 4.74375 -3 4 C-1.97186389 2.68824014 -0.95915568 1.3630107 0 0 Z " fill="#161616" transform="translate(1162,1183)"/>
<path d="M0 0 C2 2 2 2 2.22705078 5.34814453 C2.22673375 6.77640633 2.21541361 8.20469212 2.1953125 9.6328125 C2.1924826 10.38464813 2.18965271 11.13648376 2.18673706 11.91110229 C2.17552874 14.31589578 2.15042352 16.72031881 2.125 19.125 C2.11497102 20.75390088 2.10584503 22.38280758 2.09765625 24.01171875 C2.07558735 28.00795556 2.04105351 32.00391494 2 36 C2.66 35.01 3.32 34.02 4 33 C8.278551 33.47539456 10.09647107 36.02565329 13 39 C14.63377642 40.05287814 16.29181597 41.0727001 18 42 C17.67 42.99 17.34 43.98 17 45 C15.68 45 14.36 45 13 45 C12.95875 45.928125 12.9175 46.85625 12.875 47.8125 C12 51 12 51 9.1875 52.875 C6 54 6 54 2 54 C1.67 72.81 1.34 91.62 1 111 C0.67 111 0.34 111 0 111 C0 74.37 0 37.74 0 0 Z " fill="#222222" transform="translate(970,962)"/>
<path d="M0 0 C3.80635497 3.20760251 7.54563567 6.40746109 11 10 C14.43595166 8.47291037 17.11912454 6.40072955 20 4 C20 5.32 20 6.64 20 8 C19.34 8 18.68 8 18 8 C17.67 8.66 17.34 9.32 17 10 C16.01 10.495 16.01 10.495 15 11 C15.061875 12.2375 15.12375 13.475 15.1875 14.75 C15.19271733 17.69257586 15.0789452 18.85646327 13.625 21.5 C12 23 12 23 10 23 C9.67 23.99 9.34 24.98 9 26 C7.02 26 5.04 26 3 26 C3 24.68 3 23.36 3 22 C3.94875 21.79375 4.8975 21.5875 5.875 21.375 C9.29166667 20.29166667 9.29166667 20.29166667 10.375 16.875 C10.684375 15.451875 10.684375 15.451875 11 14 C10.01 14 9.02 14 8 14 C7.690625 14.804375 7.38125 15.60875 7.0625 16.4375 C6 19 6 19 5 20 C-2.75595688 20.94245691 -2.75595688 20.94245691 -6.0625 18.4375 C-7.61682974 14.39624268 -7.50971422 10.76083094 -6.3125 6.625 C-5 5 -5 5 -2.375 4.25 C-1.199375 4.12625 -1.199375 4.12625 0 4 C0 2.68 0 1.36 0 0 Z " fill="#161616" transform="translate(988,980)"/>
<path d="M0 0 C5.01374339 2.12119913 8.99546333 5.493195 12 10 C13.65816784 10.68753301 15.32459336 11.35561283 17 12 C17.495 12.99 17.495 12.99 18 14 C15 16 15 16 11 16 C10.67 14.68 10.34 13.36 10 12 C9.4225 11.9175 8.845 11.835 8.25 11.75 C5.3840696 10.79468987 4.0009236 9.21530827 2 7 C2.33 7.763125 2.66 8.52625 3 9.3125 C4 12 4 12 4 15 C4.66 15 5.32 15 6 15 C6 16.65 6 18.3 6 20 C6.66 20 7.32 20 8 20 C8 20.99 8 21.98 8 23 C2.03435204 22.49228528 -2.63809899 20.61407872 -8 18 C-7.195625 18.763125 -6.39125 19.52625 -5.5625 20.3125 C-3 23 -3 23 -2 26 C-1.34 26 -0.68 26 0 26 C0 26.66 0 27.32 0 28 C0.66 28 1.32 28 2 28 C1.34 29.32 0.68 30.64 0 32 C-1.60509934 30.56354149 -3.20904424 29.12579294 -4.8125 27.6875 C-5.70582031 26.88699219 -6.59914063 26.08648438 -7.51953125 25.26171875 C-11.80329421 21.35573646 -11.80329421 21.35573646 -13 20 C-13 19.34 -13 18.68 -13 18 C-13.66 18 -14.32 18 -15 18 C-14.67 16.68 -14.34 15.36 -14 14 C-10.02840314 12.91943941 -7.57446843 13.14184386 -3.6875 14.4375 C-2.80449219 14.72496094 -1.92148438 15.01242187 -1.01171875 15.30859375 C-0.34785156 15.53675781 0.31601563 15.76492188 1 16 C0.69964844 15.32453125 0.39929687 14.6490625 0.08984375 13.953125 C-0.29042969 13.06109375 -0.67070313 12.1690625 -1.0625 11.25 C-1.44535156 10.36828125 -1.82820313 9.4865625 -2.22265625 8.578125 C-3.05784489 5.80815263 -3.09639236 4.6405261 -2 2 C-1.34 1.34 -0.68 0.68 0 0 Z " fill="#161616" transform="translate(1151,810)"/>
<path d="M0 0 C2.36066829 1.96955165 4.68318075 3.97914169 7 6 C7.59425781 6.49113281 8.18851563 6.98226563 8.80078125 7.48828125 C11.71893801 10.07213843 12.9334419 11.62727466 13.625 15.5 C12.86877997 19.7348322 12.01807438 21.90647376 9 25 C6.15164152 25.51640087 3.92595977 25.29259598 1 25 C1 24.01 1 23.02 1 22 C3.64 21.34 6.28 20.68 9 20 C9 18.35 9 16.7 9 15 C8.34 14.67 7.68 14.34 7 14 C6.938125 14.61875 6.87625 15.2375 6.8125 15.875 C6 18 6 18 3.75 19.25 C0.88852854 20.03040131 -1.0643453 20.45163918 -4 20 C-7.15489656 17.80909961 -7.92282318 16.24968972 -9.0625 12.5625 C-9 9 -9 9 -6.6875 6.0625 C-4 4 -4 4 -2 4 C-1.34 2.68 -0.68 1.36 0 0 Z " fill="#151515" transform="translate(1271,1262)"/>
<path d="M0 0 C4.31741577 0.47398837 6.84701198 3.22506893 9.8125 6.125 C10.32748047 6.58648438 10.84246094 7.04796875 11.37304688 7.5234375 C12.83203125 8.9453125 12.83203125 8.9453125 15 12 C14.86799256 16.05390599 14.34065053 19.61906034 12 23 C8.52674819 24.1577506 5.63932552 24.06866652 2 24 C2.33 23.01 2.66 22.02 3 21 C4.64551962 20.28272222 6.31422289 19.61674772 8 19 C8.66 18.34 9.32 17.68 10 17 C10 16.01 10 15.02 10 14 C9.34 13.67 8.68 13.34 8 13 C8 13.99 8 14.98 8 16 C7.34 16 6.68 16 6 16 C6 16.66 6 17.32 6 18 C4.54263913 18.19491452 3.08405407 18.38069358 1.625 18.5625 C0.81289062 18.66691406 0.00078125 18.77132812 -0.8359375 18.87890625 C-3 19 -3 19 -5 18 C-5 17.34 -5 16.68 -5 16 C-5.66 16 -6.32 16 -7 16 C-7.08131463 14.56344146 -7.13933559 13.1255517 -7.1875 11.6875 C-7.22230469 10.88699219 -7.25710938 10.08648438 -7.29296875 9.26171875 C-7 7 -7 7 -5.67578125 5.26953125 C-4 4 -4 4 -1 3 C-0.67 2.01 -0.34 1.02 0 0 Z " fill="#161616" transform="translate(1277,880)"/>
<path d="M0 0 C6.03331362 4.98404168 11.5184171 10.41915303 17 16 C16.34 16.33 15.68 16.66 15 17 C14.34444881 19.52733235 14.34444881 19.52733235 14 22 C13.34 22 12.68 22 12 22 C12 22.66 12 23.32 12 24 C8.86501708 25.85776765 6.62528568 26.20140476 3 26 C3.1875 24.125 3.1875 24.125 4 22 C5.2065625 21.5359375 5.2065625 21.5359375 6.4375 21.0625 C9.24507417 20.22618194 9.24507417 20.22618194 10.3125 17.375 C10.539375 16.59125 10.76625 15.8075 11 15 C10.360625 15.825 9.72125 16.65 9.0625 17.5 C5.4343308 20.46177077 3.63547112 20.70170484 -0.90625 20.4140625 C-3 20 -3 20 -5.5625 18.4375 C-7.54771911 15.07125891 -7.48071685 12.84573483 -7 9 C-5.25017709 5.76282761 -3.37177797 4.39521847 0 3 C0 2.01 0 1.02 0 0 Z " fill="#141414" transform="translate(800,792)"/>
<path d="M0 0 C1.72969324 1.62486335 3.35852103 3.28817193 5 5 C6.60147737 6.60685146 8.20580908 8.21086157 9.8125 9.8125 C11.20833333 11.20833333 12.60416667 12.60416667 14 14 C13.67 14.99 13.34 15.98 13 17 C7.70841026 15.59928507 5.22521956 12.14512755 2 8 C2 11.2819174 2.7283667 13.06444787 4 16.0625 C6 20.79166667 6 20.79166667 6 23 C2.21760329 22.34309381 -1.21841526 21.279869 -4.8125 19.9375 C-5.78832031 19.57527344 -6.76414062 19.21304688 -7.76953125 18.83984375 C-8.50558594 18.56269531 -9.24164062 18.28554688 -10 18 C-10 18.99 -10 19.98 -10 21 C-9.13375 21.0928125 -9.13375 21.0928125 -8.25 21.1875 C-5.11742429 22.3187079 -3.96539149 24.37947801 -2 27 C-1.34 27.33 -0.68 27.66 0 28 C-0.33 29.32 -0.66 30.64 -1 32 C-7.51151805 28.97933955 -12.92106899 23.86346333 -17 18 C-16.8125 15.625 -16.8125 15.625 -16 14 C-10.87160006 12.18024518 -6.82315618 14.1400901 -2 16 C-2.656379 11.51474352 -3.70074209 7.33085971 -5 3 C-2.25 0 -2.25 0 0 0 Z " fill="#161616" transform="translate(770,817)"/>
<path d="M0 0 C3.52877718 1.96043177 5.5467241 4.4766106 8.06640625 7.58984375 C9.74499104 9.64996183 9.74499104 9.64996183 12.02734375 11.06640625 C12.61644531 11.56011719 13.20554687 12.05382812 13.8125 12.5625 C13.8125 13.8825 13.8125 15.2025 13.8125 16.5625 C12.8225 16.5625 11.8325 16.5625 10.8125 16.5625 C10.8125 15.9025 10.8125 15.2425 10.8125 14.5625 C10.255625 14.335625 9.69875 14.10875 9.125 13.875 C6.17555245 12.20098923 4.1372731 10.01293651 1.8125 7.5625 C1.4825 7.2325 1.1525 6.9025 0.8125 6.5625 C0.956875 7.09875 1.10125 7.635 1.25 8.1875 C1.90703748 10.96165827 2.36469948 13.74775388 2.8125 16.5625 C3.4725 16.5625 4.1325 16.5625 4.8125 16.5625 C5.1425 18.8725 5.4725 21.1825 5.8125 23.5625 C5.10738281 23.26601563 4.40226563 22.96953125 3.67578125 22.6640625 C0.80927739 21.5612602 -2.03242532 20.72408606 -5 19.9375 C-5.97582031 19.67710937 -6.95164062 19.41671875 -7.95703125 19.1484375 C-8.69308594 18.95507812 -9.42914062 18.76171875 -10.1875 18.5625 C-9.1975 19.2225 -8.2075 19.8825 -7.1875 20.5625 C-7.1875 21.2225 -7.1875 21.8825 -7.1875 22.5625 C-6.5275 22.5625 -5.8675 22.5625 -5.1875 22.5625 C-2.5 25.375 -2.5 25.375 -0.1875 28.5625 C-0.5175 29.5525 -0.8475 30.5425 -1.1875 31.5625 C-4.11980193 30.24129172 -6.17414899 28.81611803 -8.421875 26.5234375 C-8.99550781 25.94335938 -9.56914063 25.36328125 -10.16015625 24.765625 C-10.74667969 24.16234375 -11.33320312 23.5590625 -11.9375 22.9375 C-12.53949219 22.32648437 -13.14148438 21.71546875 -13.76171875 21.0859375 C-15.24155305 19.58261376 -16.71514676 18.07315144 -18.1875 16.5625 C-17.1975 15.2425 -16.2075 13.9225 -15.1875 12.5625 C-10.31853697 13.15869955 -5.85959049 14.13226822 -1.1875 15.5625 C-1.6825 14.5725 -2.1775 13.5825 -2.6875 12.5625 C-4.48853581 8.42772766 -4.42265871 5.03051547 -4.1875 0.5625 C-2.1875 -0.4375 -2.1875 -0.4375 0 0 Z " fill="#171717" transform="translate(864.1875,911.4375)"/>
<path d="M0 0 C1.61328125 1.5390625 1.61328125 1.5390625 3.3125 3.625 C6.37895211 7.2916938 9.5795363 10.66296224 13 14 C12.34 15.32 11.68 16.64 11 18 C7.37 14.37 3.74 10.74 0 7 C1.64201269 11.51860953 1.64201269 11.51860953 3.29101562 16.03466797 C5 20.77777778 5 20.77777778 5 23 C-1.18160604 22.46246904 -6.326858 20.45417612 -12 18 C-12 18.66 -12 19.32 -12 20 C-11.443125 20.2475 -10.88625 20.495 -10.3125 20.75 C-7.57589087 22.22924818 -5.32349131 23.93467439 -3 26 C-3 26.66 -3 27.32 -3 28 C-2.34 28 -1.68 28 -1 28 C-1.33 28.99 -1.66 29.98 -2 31 C-6.59774026 30.13951346 -9.11015843 27.40503655 -12.3125 24.1875 C-12.87517578 23.65318359 -13.43785156 23.11886719 -14.01757812 22.56835938 C-15.61328125 20.98046875 -15.61328125 20.98046875 -18 18 C-17.64916992 15.8137207 -17.64916992 15.8137207 -17 14 C-12.72672888 12.75786086 -10.28458881 13.30853698 -6.1875 14.9375 C-5.21167969 15.31777344 -4.23585938 15.69804688 -3.23046875 16.08984375 C-2.49441406 16.39019531 -1.75835938 16.69054687 -1 17 C-1.680625 15.7625 -1.680625 15.7625 -2.375 14.5 C-4.21141691 10.54464049 -5.29400027 7.30659832 -6 3 C-4.23807278 0.03254363 -3.47757431 0 0 0 Z " fill="#161616" transform="translate(1060,716)"/>
<path d="M0 0 C1.32 0 2.64 0 4 0 C4 0.66 4 1.32 4 2 C4.59683594 2.2578125 5.19367188 2.515625 5.80859375 2.78125 C8.18085817 4.10058422 9.38413125 5.3874932 11.0625 7.5 C13.00872186 9.93664912 14.33393182 11.22262121 17 13 C17 13.99 17 14.98 17 16 C14.8125 16.3125 14.8125 16.3125 12 16 C9.375 13.6875 9.375 13.6875 7 11 C6.00590652 9.99412816 5.00725134 8.99269569 4 8 C4.27714844 8.83144531 4.55429688 9.66289063 4.83984375 10.51953125 C6.2265625 14.6796875 7.61328125 18.83984375 9 23 C3.88634986 21.9318153 -1.07227969 20.76892524 -6 19 C-3.25014932 22.63493688 -3.25014932 22.63493688 0.25 25.5 C2 27 2 27 2.25 29.6875 C2.12625 30.8321875 2.12625 30.8321875 2 32 C-2.26796652 29.95099837 -6.20751426 27.93101987 -9 24 C-9.5915721 20.2602355 -9.4206474 16.7524419 -9 13 C-6.625 12.875 -6.625 12.875 -4 13 C-3.34 13.66 -2.68 14.32 -2 15 C0.06874034 15.6425235 0.06874034 15.6425235 2 16 C1.525625 15.175 1.05125 14.35 0.5625 13.5 C-1.23569599 9.47204099 -1.6234255 6.36826421 -2 2 C-1.34 2 -0.68 2 0 2 C0 1.34 0 0.68 0 0 Z " fill="#151515" transform="translate(1244,904)"/>
<path d="M0 0 C0.66 0 1.32 0 2 0 C2 0.66 2 1.32 2 2 C2.8353125 2.3403125 2.8353125 2.3403125 3.6875 2.6875 C6.66159588 4.37550036 8.72008865 6.46676517 11 9 C11 9.66 11 10.32 11 11 C11.66 11 12.32 11 13 11 C14.17420773 15.51618359 14.39107219 17.32784467 12 21.4375 C9 24 9 24 5.1875 24.375 C4.135625 24.25125 3.08375 24.1275 2 24 C2 23.01 2 22.02 2 21 C4.31 20.01 6.62 19.02 9 18 C8.505 15.525 8.505 15.525 8 13 C7.319375 13.99 6.63875 14.98 5.9375 16 C3.65471986 18.73674209 3.18622958 18.96732814 -0.5625 19.625 C-4 19 -4 19 -6.4375 17.5 C-8.78057502 13.75107996 -8.48773804 11.38964238 -8 7 C-6.75 5 -6.75 5 -5 4 C-3.68 4 -2.36 4 -1 4 C-0.67 2.68 -0.34 1.36 0 0 Z " fill="#171717" transform="translate(888,1270)"/>
<path d="M0 0 C1.9375 0.8125 1.9375 0.8125 4 2 C4.33 2.99 4.66 3.98 5 5 C5.5775 5.28875 6.155 5.5775 6.75 5.875 C9.92220378 7.46110189 11.78399734 9.22999668 14 12 C14.3125 15.8125 14.3125 15.8125 14 19 C13.34 19 12.68 19 12 19 C11.690625 19.639375 11.38125 20.27875 11.0625 20.9375 C10 23 10 23 9 24 C6.66702567 24.04092937 4.33294775 24.04241723 2 24 C2 23.34 2 22.68 2 22 C4.31 21.34 6.62 20.68 9 20 C9 17.69 9 15.38 9 13 C8.34 12.67 7.68 12.34 7 12 C6.87625 12.969375 6.7525 13.93875 6.625 14.9375 C6.41875 15.948125 6.2125 16.95875 6 18 C2.79419594 19.60290203 -0.52182314 19.48117071 -4 19 C-6.5 17.4375 -6.5 17.4375 -8 15 C-8.51470588 9.02941176 -8.51470588 9.02941176 -7 6 C-6.01 6 -5.02 6 -4 6 C-4 5.34 -4 4.68 -4 4 C-2.70766393 2.62689293 -1.37562854 1.28965176 0 0 Z " fill="#171717" transform="translate(700,1082)"/>
<path d="M0 0 C1.60781893 0.7631861 3.21113138 1.53587058 4.8125 2.3125 C5.70582031 2.74175781 6.59914063 3.17101562 7.51953125 3.61328125 C9.78931933 4.88221789 11.29248171 6.06556898 13 8 C12.34 9.65 11.68 11.3 11 13 C9.68 13 8.36 13 7 13 C6.67 14.65 6.34 16.3 6 18 C5.34 18 4.68 18 4 18 C4 18.99 4 19.98 4 21 C-3.04477612 21.47761194 -3.04477612 21.47761194 -7 19.5 C-9.9257306 15.84283675 -9.44607589 13.60945082 -9 9 C-8.67 8.34 -8.34 7.68 -8 7 C-7.01 7 -6.02 7 -5 7 C-4.731875 6.401875 -4.46375 5.80375 -4.1875 5.1875 C-3.00913692 3.01683117 -1.76939019 1.69182788 0 0 Z " fill="#141414" transform="translate(1077,705)"/>
<path d="M0 0 C3.24367571 1.65955501 5.17683329 3.74186174 7.6875 6.375 C8.78465008 7.23816072 9.88886813 8.09241379 11 8.9375 C11.886875 9.741875 12.77375 10.54625 13.6875 11.375 C13.6875 12.695 13.6875 14.015 13.6875 15.375 C12.3675 15.375 11.0475 15.375 9.6875 15.375 C9.6875 14.715 9.6875 14.055 9.6875 13.375 C8.6975 13.045 7.7075 12.715 6.6875 12.375 C5.08203125 10.74609375 5.08203125 10.74609375 3.5 8.8125 C2.70529297 7.85150391 2.70529297 7.85150391 1.89453125 6.87109375 C1.49621094 6.37738281 1.09789062 5.88367187 0.6875 5.375 C0.9040625 6.13425781 1.120625 6.89351562 1.34375 7.67578125 C1.6221875 8.66964844 1.900625 9.66351562 2.1875 10.6875 C2.4659375 11.67363281 2.744375 12.65976563 3.03125 13.67578125 C3.6875 16.375 3.6875 16.375 3.6875 19.375 C-1.23377034 19.54182272 -4.81593896 19.62328052 -9.3125 17.375 C-9.3125 18.035 -9.3125 18.695 -9.3125 19.375 C-8.6525 19.375 -7.9925 19.375 -7.3125 19.375 C-7.3125 20.365 -7.3125 21.355 -7.3125 22.375 C-5.9925 22.705 -4.6725 23.035 -3.3125 23.375 C-3.3125 24.035 -3.3125 24.695 -3.3125 25.375 C-6.96483688 25.73081505 -8.70046059 25.85398737 -11.6484375 23.546875 C-12.65777344 22.34804687 -12.65777344 22.34804687 -13.6875 21.125 C-14.37585938 20.33609375 -15.06421875 19.5471875 -15.7734375 18.734375 C-17.3125 16.375 -17.3125 16.375 -17.3125 12.375 C-14.35688128 10.85192441 -12.91706985 10.22143043 -9.63671875 11.0546875 C-8.33154297 11.64636719 -8.33154297 11.64636719 -7 12.25 C-6.11699219 12.63929687 -5.23398437 13.02859375 -4.32421875 13.4296875 C-3.66035156 13.74164062 -2.99648438 14.05359375 -2.3125 14.375 C-2.8730465 10.16096438 -2.8730465 10.16096438 -4.4375 6.25 C-5.3125 4.375 -5.3125 4.375 -5.0625 2.1875 C-3.89127466 -0.64296123 -2.88141211 -0.77876003 0 0 Z " fill="#161616" transform="translate(857.3125,1295.625)"/>
<path d="M0 0 C2.3125 0.25 2.3125 0.25 5 1 C6.02028865 2.31787285 7.01971384 3.65210653 8 5 C10.58498512 6.26847685 10.58498512 6.26847685 13 7 C13 8.32 13 9.64 13 11 C11.68 11 10.36 11 9 11 C8.855625 11.61875 8.71125 12.2375 8.5625 12.875 C8 15 8 15 7 17 C6.34 17 5.68 17 5 17 C5 17.66 5 18.32 5 19 C-2.36196319 19.49079755 -2.36196319 19.49079755 -5.4375 17.125 C-8.03329716 13.59471586 -8.43967878 11.39678779 -8 7 C-6.25 4.625 -6.25 4.625 -4 3 C-2.68 3 -1.36 3 0 3 C0 2.01 0 1.02 0 0 Z " fill="#161616" transform="translate(873,1285)"/>
<path d="M0 0 C0.66 0 1.32 0 2 0 C2 0.66 2 1.32 2 2 C2.66 2 3.32 2 4 2 C5.68816933 3.64488294 7.35353315 5.31337542 9 7 C9.99 7.66 10.98 8.32 12 9 C12 9.99 12 10.98 12 12 C10.68 12 9.36 12 8 12 C7.9175 12.763125 7.835 13.52625 7.75 14.3125 C7 17 7 17 5.375 18.8125 C2.02959229 20.48520386 -0.30986503 20.46126687 -4 20 C-7.00342896 17.94502229 -7.83287356 16.52366286 -8.9375 13.0625 C-9.01401228 9.31339817 -8.3485228 7.89651146 -6 5 C-4.36504293 3.94895617 -2.70116376 2.94011682 -1 2 C-0.67 1.34 -0.34 0.68 0 0 Z " fill="#151515" transform="translate(1264,894)"/>
<path d="M0 0 C1.32 0 2.64 0 4 0 C5.26657516 1.46143288 6.52743768 2.93120657 7.6953125 4.47265625 C9.47030128 6.55056228 11.64743145 7.65567511 14 9 C14 9.66 14 10.32 14 11 C12.35 11 10.7 11 9 11 C8.9175 11.7425 8.835 12.485 8.75 13.25 C7.82469988 16.6427671 6.83491939 17.93127504 4 20 C1.0625 20.5625 1.0625 20.5625 -2 20 C-5.21996872 17.56713475 -6.71364041 15.80854473 -8.0625 12 C-8 9 -8 9 -6.3125 6.1875 C-4.06256576 4.05918383 -3.01906912 3.32347169 0 3 C0 2.01 0 1.02 0 0 Z " fill="#151515" transform="translate(786,808)"/>
<path d="M0 0 C1.32 0.33 2.64 0.66 4 1 C4 1.66 4 2.32 4 3 C4.639375 3.268125 5.27875 3.53625 5.9375 3.8125 C8 5 8 5 9 8 C11.475 8.495 11.475 8.495 14 9 C13.67 9.66 13.34 10.32 13 11 C11.35 11 9.7 11 8 11 C8.103125 11.7425 8.20625 12.485 8.3125 13.25 C8 16 8 16 5.875 18.3125 C2.50107319 20.29284835 0.84547708 20.65454929 -3 20 C-5.30275556 18.1329009 -6.67823871 16.64352259 -8 14 C-8.28796546 10.68839719 -8.34590505 8.63992434 -6.75 5.6875 C-4.78766383 3.79524726 -3.58840227 3.60396053 -1 3 C-0.67 2.01 -0.34 1.02 0 0 Z " fill="#141414" transform="translate(1256,1277)"/>
<path d="M0 0 C4.98012761 1.50912958 8.24259942 4.55661849 12 8 C11.67 8.99 11.34 9.98 11 11 C10.01 11 9.02 11 8 11 C7.87625 11.763125 7.7525 12.52625 7.625 13.3125 C7 16 7 16 5 19 C0.84267473 19.89085541 -2.89557151 19.64649473 -6.5625 17.5 C-8.58941562 13.97492935 -8.82205628 10.97191547 -8 7 C-6.1875 4.5 -6.1875 4.5 -4 3 C-3.01 3 -2.02 3 -1 3 C-0.67 2.01 -0.34 1.02 0 0 Z " fill="#161616" transform="translate(881,902)"/>
<path d="M0 0 C1.15224028 0.92961422 2.29659176 1.8690125 3.4375 2.8125 C4.39462891 3.59560547 4.39462891 3.59560547 5.37109375 4.39453125 C7 6 7 6 8 9 C8.8971875 9.433125 8.8971875 9.433125 9.8125 9.875 C12.69100341 11.35537318 14.10099999 13.42278571 16 16 C12.61976483 16 10.16531063 15.12544378 7 14 C6.855625 14.639375 6.71125 15.27875 6.5625 15.9375 C6 18 6 18 5 19 C1.94590807 19.43364388 -0.94916832 19.46321528 -4 19 C-6.625 16.9375 -6.625 16.9375 -8 14 C-8.125 10.4375 -8.125 10.4375 -7 7 C-4 4.75 -4 4.75 -1 3 C-0.67 2.01 -0.34 1.02 0 0 Z " fill="#151515" transform="translate(707,699)"/>
<path d="M0 0 C4.70990274 2.09329011 8.46908003 5.28324214 12 9 C11.67 9.99 11.34 10.98 11 12 C10.01 11.67 9.02 11.34 8 11 C7.8453125 12.11375 7.8453125 12.11375 7.6875 13.25 C6.92621809 16.29512765 6.19396392 17.76754548 4 20 C1.51953125 20.171875 1.51953125 20.171875 -1.1875 19.75 C-2.08855469 19.62109375 -2.98960937 19.4921875 -3.91796875 19.359375 C-4.60503906 19.24078125 -5.29210937 19.1221875 -6 19 C-6.0810206 16.89646505 -6.13919907 14.79204048 -6.1875 12.6875 C-6.22230469 11.51574219 -6.25710938 10.34398437 -6.29296875 9.13671875 C-6 6 -6 6 -4.61328125 4.08203125 C-3 3 -3 3 -1 3 C-0.67 2.01 -0.34 1.02 0 0 Z " fill="#151515" transform="translate(693,714)"/>
<path d="M0 0 C1.65 0.33 3.3 0.66 5 1 C5 7.27 5 13.54 5 20 C0.61243846 19.12248769 -3.66710748 18.10158284 -8 17 C-8 17.66 -8 18.32 -8 19 C-7.29875 19.185625 -6.5975 19.37125 -5.875 19.5625 C-2.02399766 21.48800117 0.79584212 24.27944779 3 28 C2.67 28.99 2.34 29.98 2 31 C-2.25314786 29.32357676 -5.12101814 26.2824091 -8.3125 23.125 C-8.87517578 22.59519531 -9.43785156 22.06539062 -10.01757812 21.51953125 C-11.61328125 19.9453125 -11.61328125 19.9453125 -14 17 C-13.64916992 14.81591797 -13.64916992 14.81591797 -13 13 C-7.87160006 11.18024518 -3.82315618 13.1400901 1 15 C0.67 12.36 0.34 9.72 0 7 C-0.66 7 -1.32 7 -2 7 C-2.125 4.625 -2.125 4.625 -2 2 C-1.34 1.34 -0.68 0.68 0 0 Z " fill="#161616" transform="translate(760,1201)"/>
<path d="M0 0 C2.35539639 1.97527478 4.68066897 3.98256537 7 6 C8.4540625 7.2375 8.4540625 7.2375 9.9375 8.5 C12 11 12 11 12.3125 14.3125 C12.209375 15.199375 12.10625 16.08625 12 17 C10.68 15.68 9.36 14.36 8 13 C7.505 13.804375 7.01 14.60875 6.5 15.4375 C2.9886894 19.03659336 0.96950793 18.92111892 -4 19 C-7 17 -7 17 -7.546875 15.125 C-7.61390625 14.42375 -7.6809375 13.7225 -7.75 13 C-7.82734375 12.29875 -7.9046875 11.5975 -7.984375 10.875 C-8 9 -8 9 -7 7 C-6.34 7 -5.68 7 -5 7 C-5 6.01 -5 5.02 -5 4 C-4.01 4 -3.02 4 -2 4 C-1.34 2.68 -0.68 1.36 0 0 Z " fill="#141414" transform="translate(895,887)"/>
<path d="M0 0 C5.22654901 1.47642627 8.16826439 4.82231936 11.8125 8.625 C12.7087207 9.54152344 12.7087207 9.54152344 13.62304688 10.4765625 C15.08895106 11.97764839 16.54542993 13.48792862 18 15 C17.67 15.66 17.34 16.32 17 17 C13.65750371 16.40312566 11.53563658 15.26396123 9 13 C9 12.34 9 11.68 9 11 C8.01 11.66 7.02 12.32 6 13 C6.515625 14.0725 7.03125 15.145 7.5625 16.25 C9.17843523 19.61114527 8.99779071 20.00883715 8 24 C5.03 23.01 2.06 22.02 -1 21 C-1.0269501 18.06243881 -1.04681474 15.12512445 -1.0625 12.1875 C-1.07087891 11.35412109 -1.07925781 10.52074219 -1.08789062 9.66210938 C-1.09111328 8.85966797 -1.09433594 8.05722656 -1.09765625 7.23046875 C-1.10289307 6.49207764 -1.10812988 5.75368652 -1.11352539 4.99291992 C-1 3 -1 3 0 0 Z " fill="#161616" transform="translate(1236,1286)"/>
<path d="M0 0 C-0.66 1.98 -1.32 3.96 -2 6 C-1.01 6 -0.02 6 1 6 C1 5.34 1 4.68 1 4 C5.35294118 0 5.35294118 0 9 0 C10.17426264 2.34852528 10.11508173 3.73774065 10.09765625 6.3515625 C10.09443359 7.20234375 10.09121094 8.053125 10.08789062 8.9296875 C10.07951172 9.81914063 10.07113281 10.70859375 10.0625 11.625 C10.05798828 12.5221875 10.05347656 13.419375 10.04882812 14.34375 C10.03702591 16.56256648 10.02056155 18.78125018 10 21 C6.3256998 19.25055779 4.23140461 17.27371502 1.5625 14.2421875 C-0.18916538 12.58512958 -0.18916538 12.58512958 -4 13 C-4.144375 12.195625 -4.28875 11.39125 -4.4375 10.5625 C-4.74135249 8.07896294 -4.74135249 8.07896294 -6 7 C-6.25 4.5625 -6.25 4.5625 -6 2 C-3 0 -3 0 0 0 Z " fill="#161616" transform="translate(1303,849)"/>
<path d="M0 0 C0.99 0 1.98 0 3 0 C2.67 1.98 2.34 3.96 2 6 C2.45890625 5.55527344 2.9178125 5.11054687 3.390625 4.65234375 C4.31101562 3.80349609 4.31101562 3.80349609 5.25 2.9375 C5.85328125 2.36902344 6.4565625 1.80054688 7.078125 1.21484375 C9 0 9 0 11.171875 0.12890625 C11.77515625 0.41636719 12.3784375 0.70382812 13 1 C13.33 1.99 13.66 2.98 14 4 C15.3153341 4.70151152 16.65117592 5.36525925 18 6 C19.8125 7.375 19.8125 7.375 21 9 C20.6875 11.1875 20.6875 11.1875 20 13 C16.18315774 11.44499019 13.80804268 8.96404505 11 6 C9.02 6.99 9.02 6.99 7 8 C8.02046533 11.061396 8.81090589 12.82171126 11.1875 15.0625 C11.785625 15.701875 12.38375 16.34125 13 17 C12.75 19.25 12.75 19.25 12 21 C11.34 21 10.68 21 10 21 C9.443125 20.236875 8.88625 19.47375 8.3125 18.6875 C6.13651582 15.71411129 6.13651582 15.71411129 2.375 14.6875 C-1 13 -1 13 -2 11.21484375 C-3.09660218 7.5480802 -3.24328729 5.61462052 -1.8125 2 C-1.214375 1.34 -0.61625 0.68 0 0 Z " fill="#151515" transform="translate(722,1051)"/>
<path d="M0 0 C4.54356451 2.04510775 8.02763744 4.99676025 11 9 C10.9375 11.9375 10.9375 11.9375 10 14 C8.84775972 13.07038578 7.70340824 12.1309875 6.5625 11.1875 C5.92441406 10.66542969 5.28632812 10.14335938 4.62890625 9.60546875 C3 8 3 8 2 5 C1.01 5 0.02 5 -1 5 C-1.33 5.99 -1.66 6.98 -2 8 C-2.66 8 -3.32 8 -4 8 C-1.68116787 12.50884026 1.06451569 14.93906776 5 18 C4.34 18.99 3.68 19.98 3 21 C0.1557415 19.84122802 -1.27847757 18.70724153 -3.4375 16.4375 C-6.1178537 13.88789526 -7.39068083 13.30937021 -11 13 C-11.22162329 11.37675914 -11.42689803 9.751279 -11.625 8.125 C-11.74101563 7.22007813 -11.85703125 6.31515625 -11.9765625 5.3828125 C-11.98429687 4.59648438 -11.99203125 3.81015625 -12 3 C-11.34 2.34 -10.68 1.68 -10 1 C-8.68 1 -7.36 1 -6 1 C-6 1.66 -6 2.32 -6 3 C-6.66 3 -7.32 3 -8 3 C-7.01 4.485 -7.01 4.485 -6 6 C-2.47618313 3.45395403 -2.47618313 3.45395403 0 0 Z " fill="#161616" transform="translate(1302,1231)"/>
<path d="M0 0 C3.80635497 3.20760251 7.54563567 6.40746109 11 10 C14.43595166 8.47291037 17.11912454 6.40072955 20 4 C20 5.32 20 6.64 20 8 C19.34 8 18.68 8 18 8 C17.67 8.66 17.34 9.32 17 10 C16.01 10.495 16.01 10.495 15 11 C15.061875 12.2375 15.12375 13.475 15.1875 14.75 C15.19271733 17.69257586 15.0789452 18.85646327 13.625 21.5 C12 23 12 23 10 23 C9.67 23.99 9.34 24.98 9 26 C7.02 26 5.04 26 3 26 C3 24.68 3 23.36 3 22 C3.94875 21.79375 4.8975 21.5875 5.875 21.375 C9.29166667 20.29166667 9.29166667 20.29166667 10.375 16.875 C10.58125 15.92625 10.7875 14.9775 11 14 C9.68 14 8.36 14 7 14 C6.67 12.02 6.34 10.04 6 8 C3.36 7.67 0.72 7.34 -2 7 C-1.34 4.69 -0.68 2.38 0 0 Z " fill="#151515" transform="translate(988,980)"/>
<path d="M0 0 C-0.33 1.32 -0.66 2.64 -1 4 C-3.31 4.66 -5.62 5.32 -8 6 C-7.67 8.31 -7.34 10.62 -7 13 C-4.69 13 -2.38 13 0 13 C0.66 10.69 1.32 8.38 2 6 C2.99 6 3.98 6 5 6 C5.34155908 9.67176009 5.24249951 11.58028931 3.375 14.8125 C0.4680222 17.48997956 -1.06440609 18 -5 18 C-7.32731556 16.86220128 -9.16840714 15.83159286 -11 14 C-11.07205511 12.31391034 -11.08386068 10.62499341 -11.0625 8.9375 C-11.05347656 8.01839844 -11.04445313 7.09929687 -11.03515625 6.15234375 C-11.02355469 5.44207031 -11.01195312 4.73179688 -11 4 C-10.01 3.67 -9.02 3.34 -8 3 C-8 2.34 -8 1.68 -8 1 C-5.29120665 -0.35439668 -2.99066732 -0.06501451 0 0 Z " fill="#141414" transform="translate(843,1133)"/>
<path d="M0 0 C2.43810552 2.0317546 4.48393422 4.20016884 6 7 C5.67 7.99 5.34 8.98 5 10 C2.48435529 8.88193568 0.64201233 7.70466017 -1.5 5.9375 C-3.82767647 4.13355073 -5.1441791 3.42308458 -8 3 C-7.70671668 8.35962892 -7.70671668 8.35962892 -4.4375 12.4375 C-3.633125 12.953125 -2.82875 13.46875 -2 14 C-2.33 15.32 -2.66 16.64 -3 18 C-6.10202926 16.61369489 -8.32411399 14.99905084 -10.75 12.625 C-11.67039062 11.74714844 -11.67039062 11.74714844 -12.609375 10.8515625 C-14 9 -14 9 -14 5 C-13.01 4.67 -12.02 4.34 -11 4 C-10.30062468 2.68352881 -9.63270867 1.34977849 -9 0 C-5.69035313 -1.65482343 -3.5180408 -0.93814421 0 0 Z " fill="#151515" transform="translate(1296,870)"/>
<path d="M0 0 C0.66 0 1.32 0 2 0 C2 0.66 2 1.32 2 2 C2.5775 2.226875 3.155 2.45375 3.75 2.6875 C6.5663661 4.33038023 8.08077114 6.39533227 10 9 C9.4225 9.2475 8.845 9.495 8.25 9.75 C5.87006403 10.91575822 5.87006403 10.91575822 4.0625 13.125 C2 15 2 15 -0.625 15.375 C-3 15 -3 15 -5 13 C-5.625 10.875 -5.625 10.875 -6 9 C-6.99 9.495 -6.99 9.495 -8 10 C-7.42655063 7.13275314 -7.1385485 6.1385485 -5 4 C-3.68 4 -2.36 4 -1 4 C-0.67 2.68 -0.34 1.36 0 0 Z " fill="#151515" transform="translate(888,1270)"/>
<path d="M0 0 C0 0.66 0 1.32 0 2 C0.8353125 2.37125 0.8353125 2.37125 1.6875 2.75 C4.39971127 4.21606015 6.63587365 6.02989471 9 8 C8.67 9.32 8.34 10.64 8 12 C5.39582289 10.88392409 3.96878797 9.96476062 2.0625 7.8125 C1.381875 7.214375 0.70125 6.61625 0 6 C-2.70705512 6.14025199 -2.70705512 6.14025199 -5 7 C-5.33 8.32 -5.66 9.64 -6 11 C-5.34 11 -4.68 11 -4 11 C-1.3125 13.25 -1.3125 13.25 1 16 C0.8125 18.3125 0.8125 18.3125 0 20 C-3.45201639 18.52278578 -5.64961936 16.56205999 -8.25 13.875 C-8.95640625 13.15054687 -9.6628125 12.42609375 -10.390625 11.6796875 C-10.92171875 11.12539062 -11.4528125 10.57109375 -12 10 C-11.67 9.01 -11.34 8.02 -11 7 C-10.01 7 -9.02 7 -8 7 C-8 5.68 -8 4.36 -8 3 C-7.34 3 -6.68 3 -6 3 C-6 2.34 -6 1.68 -6 1 C-4 0 -4 0 0 0 Z " fill="#151515" transform="translate(1286,1251)"/>
<path d="M0 0 C2.5 -0.5 2.5 -0.5 6 0 C8.95370122 2.41377734 11.48389665 5.13904999 14 8 C13.67 8.99 13.34 9.98 13 11 C10.44756388 9.86558395 8.60902855 8.67577977 6.4375 6.875 C4.11622611 4.69514462 4.11622611 4.69514462 1 5 C0.67 6.98 0.34 8.96 0 11 C0.66 11 1.32 11 2 11 C2 11.66 2 12.32 2 13 C2.66 13 3.32 13 4 13 C4 13.66 4 14.32 4 15 C4.66 15 5.32 15 6 15 C5.67 16.32 5.34 17.64 5 19 C0.7490223 17.01558342 -2.8728367 14.52344294 -6 11 C-6.4375 8.125 -6.4375 8.125 -6 6 C-5.01 5.67 -4.02 5.34 -3 5 C-2.67 4.01 -2.34 3.02 -2 2 C-1.34 2 -0.68 2 0 2 C0 1.34 0 0.68 0 0 Z " fill="#161616" transform="translate(898,1259)"/>
<path d="M0 0 C0 0.66 0 1.32 0 2 C0.99 2 1.98 2 3 2 C7 6.22857143 7 6.22857143 7 10 C4.75 9.8125 4.75 9.8125 2 9 C0.66172696 7.33729713 -0.67189785 5.67083819 -2 4 C-3.32 4 -4.64 4 -6 4 C-6.50753344 6.20152247 -6.50753344 6.20152247 -6 9 C-4.20822891 11.53572282 -2.15761879 13.77174488 0 16 C-1.98 16.99 -1.98 16.99 -4 18 C-5.17262904 16.88121617 -6.33795138 15.75476949 -7.5 14.625 C-8.47453125 13.68527344 -8.47453125 13.68527344 -9.46875 12.7265625 C-11 11 -11 11 -11 9 C-11.66 9 -12.32 9 -13 9 C-13 8.01 -13 7.02 -13 6 C-12.01 6 -11.02 6 -10 6 C-9.7834375 5.071875 -9.7834375 5.071875 -9.5625 4.125 C-9 2 -9 2 -8 0 C-4.71023192 -1.09658936 -3.28696233 -0.79953138 0 0 Z " fill="#151515" transform="translate(717,1072)"/>
<path d="M0 0 C-0.33 0.99 -0.66 1.98 -1 3 C-4.0625 4.1875 -4.0625 4.1875 -7 5 C-6.67 6.98 -6.34 8.96 -6 11 C-4.16299211 11.77242269 -4.16299211 11.77242269 -2 12 C0.54862922 10.13754018 1.7251791 7.84383123 3 5 C3.66 5 4.32 5 5 5 C4.67 8.63 4.34 12.26 4 16 C0 16 -4 16 -8 16 C-8 15.34 -8 14.68 -8 14 C-8.66 14 -9.32 14 -10 14 C-11.59616743 10.80766515 -11.51466114 7.46538503 -11 4 C-7.54455206 -0.49208232 -5.38953646 -1.27646916 0 0 Z " fill="#151515" transform="translate(749,1040)"/>
<path d="M0 0 C2.31 1.98 4.62 3.96 7 6 C8.32 6.66 9.64 7.32 11 8 C11 8.99 11 9.98 11 11 C9.68 11 8.36 11 7 11 C6.9175 11.7425 6.835 12.485 6.75 13.25 C5.85190201 16.54302595 4.61583926 17.85976788 2 20 C1.34 20 0.68 20 0 20 C0 13.4 0 6.8 0 0 Z " fill="#161616" transform="translate(687,1097)"/>
<path d="M0 0 C2.3920839 2.3920839 2.34576948 3.15138886 2.4375 6.4375 C2.33532053 10.67454183 2.33532053 10.67454183 -0.125 13.0625 C-3.27635977 14.09011732 -5.70525947 14.21964937 -9 14 C-11.24362573 13.7715451 -11.24362573 13.7715451 -13.125 16 C-13.74375 16.66 -14.3625 17.32 -15 18 C-15.66 17.67 -16.32 17.34 -17 17 C-11.39 11.39 -5.78 5.78 0 0 Z " fill="#212121" transform="translate(1195,796)"/>
<path d="M0 0 C3.63 0 7.26 0 11 0 C11 0.99 11 1.98 11 3 C10.01 3.495 10.01 3.495 9 4 C10.09907608 6.56451085 11.0984449 8.09554946 13.125 10.0625 C15 12 15 12 15 15 C13.35 14.67 11.7 14.34 10 14 C10 13.34 10 12.68 10 12 C9.34 12 8.68 12 8 12 C7.34 11.01 6.68 10.02 6 9 C4.68 9 3.36 9 2 9 C1.22389502 6.00645224 0.60855027 3.04275136 0 0 Z " fill="#161616" transform="translate(907,1243)"/>
<path d="M0 0 C1.32 0.33 2.64 0.66 4 1 C4 1.66 4 2.32 4 3 C4.639375 3.268125 5.27875 3.53625 5.9375 3.8125 C8 5 8 5 9 8 C11.475 8.495 11.475 8.495 14 9 C13.67 9.66 13.34 10.32 13 11 C10.69 11 8.38 11 6 11 C5.34 9.35 4.68 7.7 4 6 C0.7 6.66 -2.6 7.32 -6 8 C-5.67 6.68 -5.34 5.36 -5 4 C-4.0409375 3.8453125 -4.0409375 3.8453125 -3.0625 3.6875 C-2.381875 3.460625 -1.70125 3.23375 -1 3 C-0.67 2.01 -0.34 1.02 0 0 Z " fill="#161616" transform="translate(1256,1277)"/>
<path d="M0 0 C0.33 0.33 0.66 0.66 1 1 C0.71269945 3.33944736 0.38063221 5.6739143 0 8 C-5.41139241 9.32278481 -5.41139241 9.32278481 -7.9375 7.9375 C-9.52666796 5.03960549 -8.87523205 3.09697496 -8 0 C-5.11795733 -1.44102133 -3.08226581 -0.65580124 0 0 Z " fill="#030303" transform="translate(1080,714)"/>
<path d="M0 0 C0.99 0.33 1.98 0.66 3 1 C2.87431641 1.95712891 2.87431641 1.95712891 2.74609375 2.93359375 C2.59333984 4.17302734 2.59333984 4.17302734 2.4375 5.4375 C2.33308594 6.26121094 2.22867188 7.08492187 2.12109375 7.93359375 C2.08113281 8.61550781 2.04117188 9.29742188 2 10 C3.03978185 11.24878498 3.03978185 11.24878498 5.3125 11.25 C8.44076838 10.95899829 9.68677733 10.05619793 12 8 C11.45276317 11.37462715 10.9451 13.08235 9 16 C5.7 15.67 2.4 15.34 -1 15 C-1.02693575 12.87506859 -1.04636628 10.75004088 -1.0625 8.625 C-1.07410156 7.44164062 -1.08570313 6.25828125 -1.09765625 5.0390625 C-1 2 -1 2 0 0 Z " fill="#161616" transform="translate(688,718)"/>
<path d="M0 0 C3 0.25 3 0.25 5 2.25 C4.625 5.875 4.625 5.875 4 9.25 C0.625 9.375 0.625 9.375 -3 9.25 C-5 7.25 -5 7.25 -5.25 4.75 C-4.86630891 0.91308908 -3.76694968 0.31391247 0 0 Z " fill="#020202" transform="translate(881,907.75)"/>
<path d="M0 0 C2.35539639 1.97527478 4.68066897 3.98256537 7 6 C7.969375 6.825 8.93875 7.65 9.9375 8.5 C12 11 12 11 12.3125 14.3125 C12.1578125 15.6428125 12.1578125 15.6428125 12 17 C10.68 15.68 9.36 14.36 8 13 C7.38125 13.825 6.7625 14.65 6.125 15.5 C5.073125 16.7375 5.073125 16.7375 4 18 C3.34 18 2.68 18 2 18 C2.309375 17.484375 2.61875 16.96875 2.9375 16.4375 C4.29059287 13.33334577 4.61359424 10.34884993 5 7 C2.69 6.67 0.38 6.34 -2 6 C-1.34 4.02 -0.68 2.04 0 0 Z " fill="#202020" transform="translate(895,887)"/>
<path d="M0 0 C0.94875 0.04125 1.8975 0.0825 2.875 0.125 C4.25625018 2.88750036 4.06579306 5.07231099 3.875 8.125 C3.215 8.785 2.555 9.445 1.875 10.125 C-3.69318182 9.55681818 -3.69318182 9.55681818 -5.125 8.125 C-5.3125 5.1875 -5.3125 5.1875 -5.125 2.125 C-3.125 0.125 -3.125 0.125 0 0 Z " fill="#020202" transform="translate(1257.125,1282.875)"/>
<path d="M0 0 C3.0625 0.125 3.0625 0.125 5.0625 1.125 C5.1875 4 5.1875 4 5.0625 7.125 C3.0625 9.125 3.0625 9.125 -0.0625 9.25 C-1.01125 9.20875 -1.96 9.1675 -2.9375 9.125 C-4.3325848 6.82721327 -5.01188619 5.6457033 -4.625 2.9375 C-3.50464438 -0.01616483 -3.34924478 0.14252105 0 0 Z " fill="#030303" transform="translate(1263.9375,900.875)"/>
<path d="M0 0 C2.375 0.75 2.375 0.75 3.375 1.75 C3.41592937 4.08297433 3.41741723 6.41705225 3.375 8.75 C-3.375 9.875 -3.375 9.875 -5.625 8.75 C-5.98575949 3.33860759 -5.98575949 3.33860759 -4.4375 0.8125 C-2.625 -0.25 -2.625 -0.25 0 0 Z " fill="#020202" transform="translate(788.625,814.25)"/>
<path d="M0 0 C0 0.66 0 1.32 0 2 C0.66 2 1.32 2 2 2 C2.125 4.875 2.125 4.875 2 8 C0 10 0 10 -2.5 10.25 C-5 10 -5 10 -7 8 C-7.3125 5 -7.3125 5 -7 2 C-4 0 -4 0 0 0 Z " fill="#020202" transform="translate(696,720)"/>
<path d="M0 0 C1.15224028 0.92961422 2.29659176 1.8690125 3.4375 2.8125 C4.39462891 3.59560547 4.39462891 3.59560547 5.37109375 4.39453125 C7 6 7 6 8 9 C8.8971875 9.433125 8.8971875 9.433125 9.8125 9.875 C12.69100341 11.35537318 14.10099999 13.42278571 16 16 C12.70776216 16 10.91489643 15.49481868 8 14 C6.52421591 11.71253467 5.86532451 9.59597353 5 7 C0.78121808 6.80377759 -2.17010894 7.19769832 -6 9 C-4.6970768 6.093479 -3.29126619 4.19164592 -1 2 C-0.67 1.34 -0.34 0.68 0 0 Z " fill="#2E2E2E" transform="translate(707,699)"/>
<path d="M0 0 C0.94875 0.04125 1.8975 0.0825 2.875 0.125 C4 2.375 4 2.375 4.875 5.125 C4 7.4375 4 7.4375 2.875 9.125 C0 9.25 0 9.25 -3.125 9.125 C-5.125 7.125 -5.125 7.125 -5.375 4.625 C-4.98192433 0.69424327 -3.8631953 0.15452781 0 0 Z " fill="#010101" transform="translate(874.125,1290.875)"/>
<path d="M0 0 C2.97 0.495 2.97 0.495 6 1 C6.09765625 7.15234375 6.09765625 7.15234375 6 9 C5 10 5 10 1.4375 10.0625 C0.303125 10.041875 -0.83125 10.02125 -2 10 C-2.6875 7.25 -2.6875 7.25 -3 4 C-1.5625 1.625 -1.5625 1.625 0 0 Z " fill="#030303" transform="translate(706,705)"/>
<path d="M0 0 C2.625 0.1875 2.625 0.1875 5.625 2.1875 C4.75 8.0625 4.75 8.0625 3.625 9.1875 C0.625 9.3125 0.625 9.3125 -2.375 9.1875 C-3.375 8.1875 -3.375 8.1875 -3.5 4.6875 C-3.34201225 0.26384307 -3.34201225 0.26384307 0 0 Z " fill="#020202" transform="translate(974.375,1001.8125)"/>
<path d="M0 0 C2 3 2 3 1.625 5.6875 C1.41875 6.450625 1.2125 7.21375 1 8 C0.34 8 -0.32 8 -1 8 C-1 8.66 -1 9.32 -1 10 C-3.97 9.505 -3.97 9.505 -7 9 C-7.1875 5.625 -7.1875 5.625 -7 2 C-4 0 -4 0 0 0 Z " fill="#030303" transform="translate(1281,886)"/>
<path d="M0 0 C2.4375 0.1875 2.4375 0.1875 3.4375 1.1875 C3.47842937 3.52047433 3.47991723 5.85455225 3.4375 8.1875 C0.0625 8.8125 0.0625 8.8125 -3.5625 9.1875 C-4.2225 8.5275 -4.8825 7.8675 -5.5625 7.1875 C-5.14918707 3.05437073 -4.59499532 0.33621917 0 0 Z " fill="#020202" transform="translate(888.5625,1275.8125)"/>
<path d="M0 0 C0.33 2.31 0.66 4.62 1 7 C-2 9 -2 9 -4.625 8.6875 C-7 8 -7 8 -8 7 C-8.04080783 5.00041636 -8.04254356 2.99954746 -8 1 C-5.07175348 0.02391783 -3.04386724 -0.08226668 0 0 Z " fill="#020202" transform="translate(704,1089)"/>
<path d="M0 0 C2.31 0 4.62 0 7 0 C7.80967438 2.91482778 8.21845993 4.46113217 7.0625 7.3125 C6.5365625 8.1478125 6.5365625 8.1478125 6 9 C3.625 9.1875 3.625 9.1875 1 9 C-1 6 -1 6 -0.625 2.8125 C-0.41875 1.884375 -0.2125 0.95625 0 0 Z " fill="#020202" transform="translate(798,800)"/>
<path d="M0 0 C5.71428571 0.71428571 5.71428571 0.71428571 7 2 C7.1875 4.4375 7.1875 4.4375 7 7 C5 9 5 9 2.5 9.3125 C1.2625 9.1578125 1.2625 9.1578125 0 9 C-2 6 -2 6 -1.6875 3.375 C-1 1 -1 1 0 0 Z " fill="#030303" transform="translate(1268,1269)"/>
<path d="M0 0 C1.65 0 3.3 0 5 0 C6.3950848 2.29778673 7.07438619 3.4792967 6.6875 6.1875 C6 8 6 8 5 9 C3.00041636 9.04080783 0.99954746 9.04254356 -1 9 C-1.80967438 6.08517222 -2.21845993 4.53886783 -1.0625 1.6875 C-0.711875 1.130625 -0.36125 0.57375 0 0 Z " fill="#020202" transform="translate(987,987)"/>
<path d="M0 0 C3.79594117 0.56426152 5.58710633 2.18251862 8.25 4.875 C8.95640625 5.57367187 9.6628125 6.27234375 10.390625 6.9921875 C12 9 12 9 12 12 C7.32197941 11.72482232 5.25361247 9.66806114 2.13671875 6.47265625 C1 5 1 5 1 3 C0.34 3 -0.32 3 -1 3 C-0.67 2.01 -0.34 1.02 0 0 Z " fill="#151515" transform="translate(1295,863)"/>
<path d="M0 0 C1.875 0.25 1.875 0.25 4 1 C4.6837045 2.32467746 5.34964186 3.65863633 6 5 C8.00016466 6.20882096 8.00016466 6.20882096 10 7 C11 8 11 8 11.0625 10.5625 C11.041875 11.366875 11.02125 12.17125 11 13 C7.63820226 11.55922954 5.40843732 9.75249979 3 7 C3 6.34 3 5.68 3 5 C2.01 4.67 1.02 4.34 0 4 C0 2.68 0 1.36 0 0 Z " fill="#151515" transform="translate(717,1065)"/>
<path d="M0 0 C3.16115776 1.36983503 3.9927092 1.9890638 6 5 C7.65816784 5.68753301 9.32459336 6.35561283 11 7 C11.33 7.66 11.66 8.32 12 9 C9 11 9 11 5 11 C4.67 9.68 4.34 8.36 4 7 C2.68 6.67 1.36 6.34 0 6 C-0.38218767 4.34385343 -0.71395102 2.67542976 -1 1 C-0.67 0.67 -0.34 0.34 0 0 Z " fill="#1B1B1B" transform="translate(1157,815)"/>
<path d="M0 0 C0.99 0 1.98 0 3 0 C3 4.62 3 9.24 3 14 C-2 11 -2 11 -2.55859375 9.0625 C-2.51863281 8.381875 -2.47867187 7.70125 -2.4375 7 C-2.41558594 6.319375 -2.39367188 5.63875 -2.37109375 4.9375 C-2 3 -2 3 0 0 Z " fill="#141414" transform="translate(1310,1222)"/>
<path d="M0 0 C1.9375 0.75 1.9375 0.75 3.9375 1.75 C3.980221 3.41611905 3.97813832 5.08382885 3.9375 6.75 C2.9375 7.75 2.9375 7.75 -0.625 7.8125 C-1.759375 7.791875 -2.89375 7.77125 -4.0625 7.75 C-4.75 5.4375 -4.75 5.4375 -5.0625 2.75 C-3.53567881 0.3392297 -2.88484531 -0.34967822 0 0 Z " fill="#010101" transform="translate(896.0625,894.25)"/>
<path d="M0 0 C0.65355469 0.56267578 0.65355469 0.56267578 1.3203125 1.13671875 C5.18607599 4.45859777 9.07657648 7.74642927 13 11 C10.8614515 13.1385485 9.86724686 13.42655063 7 14 C6.67 12.02 6.34 10.04 6 8 C3.36 7.67 0.72 7.34 -2 7 C-1.34 4.69 -0.68 2.38 0 0 Z " fill="#2B2B2B" transform="translate(988,980)"/>
<path d="M0 0 C3 0 3 0 4.71875 1.64453125 C5.3065625 2.35996094 5.894375 3.07539062 6.5 3.8125 C8.58277276 6.32004878 10.65488525 8.73353239 13 11 C10.80078125 11.77734375 10.80078125 11.77734375 8 12 C5.54296875 10.12890625 5.54296875 10.12890625 3.1875 7.5625 C2.00220703 6.29599609 2.00220703 6.29599609 0.79296875 5.00390625 C0.20128906 4.34261719 -0.39039063 3.68132812 -1 3 C-0.67 2.01 -0.34 1.02 0 0 Z " fill="#161616" transform="translate(905,1253)"/>
<path d="M0 0 C0.99 0 1.98 0 3 0 C3 0.66 3 1.32 3 2 C3.66 2 4.32 2 5 2 C8.04395069 4.73955562 10.44396229 7.18063472 12 11 C10.68 11.33 9.36 11.66 8 12 C5.03 8.7 2.06 5.4 -1 2 C-0.67 1.34 -0.34 0.68 0 0 Z " fill="#161616" transform="translate(1288,1246)"/>
<path d="M0 0 C0.99 0 1.98 0 3 0 C3 0.66 3 1.32 3 2 C3.66 2 4.32 2 5 2 C5 4.97 5 7.94 5 11 C3.68 10.34 2.36 9.68 1 9 C1 8.34 1 7.68 1 7 C-0.32 6.34 -1.64 5.68 -3 5 C-1.125 1.125 -1.125 1.125 0 0 Z " fill="#030303" transform="translate(1308,854)"/>
<path d="M0 0 C0.99 0 1.98 0 3 0 C2.5020163 3.73487777 2.12508244 5.81237635 0 9 C-2.1640625 9.51171875 -2.1640625 9.51171875 -4.625 9.6875 C-5.44226563 9.75324219 -6.25953125 9.81898438 -7.1015625 9.88671875 C-7.72804688 9.92410156 -8.35453125 9.96148438 -9 10 C-9.33 9.34 -9.66 8.68 -10 8 C-9.67 7.34 -9.34 6.68 -9 6 C-7.02 6 -5.04 6 -3 6 C-3 5.34 -3 4.68 -3 4 C-2.34 3.67 -1.68 3.34 -1 3 C-0.67 2.01 -0.34 1.02 0 0 Z " fill="#141414" transform="translate(718,714)"/>
<path d="M0 0 C0.66 0.66 1.32 1.32 2 2 C1.75 5.5625 1.75 5.5625 1 9 C-2.21451269 10.60725635 -5.43612536 10.05748185 -9 10 C-9 8.68 -9 7.36 -9 6 C-4.545 5.505 -4.545 5.505 0 5 C0 3.35 0 1.7 0 0 Z " fill="#111111" transform="translate(905,902)"/>
<path d="M0 0 C0.66 0.33 1.32 0.66 2 1 C2 3.31 2 5.62 2 8 C0.58566794 8.2236337 -0.83167618 8.42826476 -2.25 8.625 C-3.03890625 8.74101563 -3.8278125 8.85703125 -4.640625 8.9765625 C-7.32152459 9.00319395 -8.72694089 8.36592084 -11 7 C-9.68 7 -8.36 7 -7 7 C-6.67 6.34 -6.34 5.68 -6 5 C-5.360625 4.690625 -4.72125 4.38125 -4.0625 4.0625 C-1.68028507 3.04654078 -1.68028507 3.04654078 0 0 Z " fill="#070707" transform="translate(903,899)"/>
<path d="M0 0 C0.48210937 0.42152344 0.96421875 0.84304688 1.4609375 1.27734375 C2.09257813 1.82519531 2.72421875 2.37304688 3.375 2.9375 C4.00148438 3.48277344 4.62796875 4.02804687 5.2734375 4.58984375 C6.95632334 6.06958624 6.95632334 6.06958624 9 7 C8.34 8.98 7.68 10.96 7 13 C2.125 8.375 2.125 8.375 1 5 C0.34 5 -0.32 5 -1 5 C-0.67 3.35 -0.34 1.7 0 0 Z " fill="#1C1C1C" transform="translate(1151,1199)"/>
<path d="M0 0 C1.2065625 0.0309375 1.2065625 0.0309375 2.4375 0.0625 C2.1075 3.0325 1.7775 6.0025 1.4375 9.0625 C0.4475 9.3925 -0.5425 9.7225 -1.5625 10.0625 C-3.41314319 6.93953962 -3.85606154 4.68309232 -3.5625 1.0625 C-2.5625 0.0625 -2.5625 0.0625 0 0 Z " fill="#080808" transform="translate(1161.5625,1189.9375)"/>
<path d="M0 0 C0.33 0 0.66 0 1 0 C1 1.65 1 3.3 1 5 C1.99 4.34 2.98 3.68 4 3 C3.67 4.32 3.34 5.64 3 7 C2.34 7 1.68 7 1 7 C1 7.66 1 8.32 1 9 C-2.13498292 10.85776765 -4.37471432 11.20140476 -8 11 C-7.8125 9.125 -7.8125 9.125 -7 7 C-6.195625 6.690625 -5.39125 6.38125 -4.5625 6.0625 C-1.75492583 5.22618194 -1.75492583 5.22618194 -0.6875 2.375 C-0.460625 1.59125 -0.23375 0.8075 0 0 Z " fill="#131313" transform="translate(811,807)"/>
<path d="M0 0 C0.99 0.33 1.98 0.66 3 1 C3 3.31 3 5.62 3 8 C-0.08809695 9.76462683 -1.23312136 10 -5 10 C-4.34 8.68 -3.68 7.36 -3 6 C-2.34 6 -1.68 6 -1 6 C-0.67 4.02 -0.34 2.04 0 0 Z " fill="#060606" transform="translate(707,1094)"/>
<path d="M0 0 C4.75 0.875 4.75 0.875 7 2 C7 2.66 7 3.32 7 4 C7.66 4 8.32 4 9 4 C9.33 5.32 9.66 6.64 10 8 C8.68 8.33 7.36 8.66 6 9 C3 5.25 3 5.25 3 3 C2.01 2.67 1.02 2.34 0 2 C0 1.34 0 0.68 0 0 Z " fill="#141414" transform="translate(921,1243)"/>
<path d="M0 0 C3.27481575 0.97359387 4.76205109 1.69066641 6.875 4.4375 C8 7 8 7 7 10 C5.68 9.34 4.36 8.68 3 8 C3 7.34 3 6.68 3 6 C2.01 5.67 1.02 5.34 0 5 C0 3.35 0 1.7 0 0 Z " fill="#151515" transform="translate(829,1148)"/>
<path d="M0 0 C1.12894876 0.93274109 2.25300876 1.87140122 3.375 2.8125 C4.00148438 3.33457031 4.62796875 3.85664062 5.2734375 4.39453125 C7 6 7 6 9 9 C7.68 10.32 6.36 11.64 5 13 C4.34 12.67 3.68 12.34 3 12 C3.061875 11.278125 3.12375 10.55625 3.1875 9.8125 C2.96406005 6.46090075 1.80502113 4.78274092 0 2 C0 1.34 0 0.68 0 0 Z " fill="#2B2B2B" transform="translate(808,800)"/>
<path d="M0 0 C0.66 0.33 1.32 0.66 2 1 C1.01 3.97 0.02 6.94 -1 10 C-1.66 9.01 -2.32 8.02 -3 7 C-3 8.98 -3 10.96 -3 13 C-3.66 12.67 -4.32 12.34 -5 12 C-5.30192308 4.15 -5.30192308 4.15 -3 1 C-2.01 0.67 -1.02 0.34 0 0 Z " fill="#101010" transform="translate(986,984)"/>
<path d="M0 0 C0.66 0.33 1.32 0.66 2 1 C0.10019993 4.51463012 -1.56635317 6.89550678 -5 9 C-5.66 9 -6.32 9 -7 9 C-7.66 9.66 -8.32 10.32 -9 11 C-9 8 -9 8 -7.03125 5.95703125 C-6.1959375 5.24933594 -5.360625 4.54164062 -4.5 3.8125 C-3.6646875 3.09707031 -2.829375 2.38164063 -1.96875 1.64453125 C-1.3190625 1.10183594 -0.669375 0.55914063 0 0 Z " fill="#E3E3E3" transform="translate(1112,1275)"/>
<path d="M0 0 C-0.66 0 -1.32 0 -2 0 C-2.33 0.99 -2.66 1.98 -3 3 C-4.98 3 -6.96 3 -9 3 C-9 1.68 -9 0.36 -9 -1 C-5.22102349 -2.0497157 -3.35080929 -2.10976881 0 0 Z " fill="#141414" transform="translate(1000,1003)"/>
<path d="M0 0 C3.465 1.485 3.465 1.485 7 3 C6.360625 3.474375 5.72125 3.94875 5.0625 4.4375 C3.11706694 5.83738726 3.11706694 5.83738726 2 7 C0.00041636 7.04080783 -2.00045254 7.04254356 -4 7 C-3.525625 6.21625 -3.05125 5.4325 -2.5625 4.625 C-1.66101977 3.11051322 -0.78820515 1.5764103 0 0 Z " fill="#1E1E1E" transform="translate(1077,705)"/>
<path d="M0 0 C1.14926266 0.95421808 2.29430541 1.91352045 3.4375 2.875 C4.07558594 3.40867187 4.71367188 3.94234375 5.37109375 4.4921875 C7 6 7 6 8 8 C4.7 7.34 1.4 6.68 -2 6 C-1.34 4.02 -0.68 2.04 0 0 Z " fill="#2D2D2D" transform="translate(895,887)"/>
<path d="M0 0 C0.25 2.25 0.25 2.25 0 5 C-1.875 7.3125 -1.875 7.3125 -4 9 C-4.66 9 -5.32 9 -6 9 C-6 7.35 -6 5.7 -6 4 C-5.01 4 -4.02 4 -3 4 C-3 3.01 -3 2.02 -3 1 C-1 0 -1 0 0 0 Z " fill="#161616" transform="translate(693,1108)"/>
<path d="M0 0 C1.98 0.99 1.98 0.99 4 2 C3.67 4.31 3.34 6.62 3 9 C2.01 9 1.02 9 0 9 C0 6.03 0 3.06 0 0 Z " fill="#020202" transform="translate(687,1103)"/>
<path d="M0 0 C1.32 0 2.64 0 4 0 C3.34 3.3 2.68 6.6 2 10 C0.35835645 6.7167129 -0.52087355 4.54553576 -1 1 C-0.67 0.67 -0.34 0.34 0 0 Z " fill="#2B2B2B" transform="translate(1163,1184)"/>
<path d="M0 0 C2.31 1.98 4.62 3.96 7 6 C3.99580359 7.0013988 1.12290635 7.51421457 -2 8 C-1.67 7.236875 -1.34 6.47375 -1 5.6875 C0.17436686 3.00930865 0.17436686 3.00930865 0 0 Z " fill="#2E2E2E" transform="translate(800,792)"/>
<path d="M0 0 C0.66 1.32 1.32 2.64 2 4 C2.66 4.66 3.32 5.32 4 6 C3.625 8.625 3.625 8.625 3 11 C2.01 10.67 1.02 10.34 0 10 C0 6.7 0 3.4 0 0 Z " fill="#070707" transform="translate(1235,1293)"/>
<path d="M0 0 C0.66 0.33 1.32 0.66 2 1 C2 1.66 2 2.32 2 3 C-1.11505367 5.84804907 -4.01328937 7.63312778 -8 9 C-7.04270084 7.87411986 -6.08412105 6.7493285 -5.125 5.625 C-4.59132813 4.99851562 -4.05765625 4.37203125 -3.5078125 3.7265625 C-2.38567993 2.44163349 -1.20628025 1.20628025 0 0 Z " fill="#292929" transform="translate(1042,949)"/>
<path d="M0 0 C0.33 0.99 0.66 1.98 1 3 C-1 4.5 -1 4.5 -3 6 C-3.680625 6.5775 -4.36125 7.155 -5.0625 7.75 C-5.701875 8.1625 -6.34125 8.575 -7 9 C-7.99 8.67 -8.98 8.34 -10 8 C-6.7 5.36 -3.4 2.72 0 0 Z " fill="#151515" transform="translate(1061,1215)"/>
<path d="M0 0 C4.875 3.625 4.875 3.625 6 7 C4.68 7 3.36 7 2 7 C0 5 0 5 -0.125 2.375 C-0.08375 1.59125 -0.0425 0.8075 0 0 Z " fill="#0C0C0C" transform="translate(1155,1198)"/>
<path d="M0 0 C0.66 0 1.32 0 2 0 C2 1.65 2 3.3 2 5 C0.02 5.66 -1.96 6.32 -4 7 C-2.79618552 4.50638429 -1.54571278 2.31856917 0 0 Z " fill="#050505" transform="translate(1192,800)"/>
<path d="M0 0 C1.32 1.65 2.64 3.3 4 5 C3.01 6.485 3.01 6.485 2 8 C1.34 8 0.68 8 0 8 C-0.38063221 5.6739143 -0.71269945 3.33944736 -1 1 C-0.67 0.67 -0.34 0.34 0 0 Z " fill="#141414" transform="translate(1236,1311)"/>
<path d="M0 0 C0 0.99 0 1.98 0 3 C-0.99 3.495 -0.99 3.495 -2 4 C-1.34 2.68 -0.68 1.36 0 0 Z M-4 5 C-4 8 -4 8 -6 10.1875 C-6.66 10.785625 -7.32 11.38375 -8 12 C-8 9 -8 9 -6 6.8125 C-5.34 6.214375 -4.68 5.61625 -4 5 Z " fill="#151515" transform="translate(1071,1204)"/>
<path d="M0 0 C3.125 0.375 3.125 0.375 6 1 C6.33 2.65 6.66 4.3 7 6 C6.01 6 5.02 6 4 6 C3.67 5.01 3.34 4.02 3 3 C1.35 2.67 -0.3 2.34 -2 2 C-1.34 1.34 -0.68 0.68 0 0 Z " fill="#1A1A1A" transform="translate(802,798)"/>
<path d="M0 0 C0.66 0 1.32 0 2 0 C2.33 1.32 2.66 2.64 3 4 C2.01 4.66 1.02 5.32 0 6 C-0.66 4.68 -1.32 3.36 -2 2 C-1.34 1.34 -0.68 0.68 0 0 Z " fill="#111111" transform="translate(1298,1226)"/>
<path d="M0 0 C0.33 0.99 0.66 1.98 1 3 C0.67 3.33 0.34 3.66 0 4 C1.65 4.33 3.3 4.66 5 5 C5 5.33 5 5.66 5 6 C2.36 6.33 -0.28 6.66 -3 7 C-3 3 -3 3 -1.5 1.25 C-1.005 0.8375 -0.51 0.425 0 0 Z " fill="#0F0F0F" transform="translate(699,1083)"/>
<path d="M0 0 C2 2 2 2 2.125 4.625 C2.08375 5.40875 2.0425 6.1925 2 7 C0.35 7.33 -1.3 7.66 -3 8 C-2.34 7.01 -1.68 6.02 -1 5 C-0.61500109 3.34450469 -0.27206865 1.6777567 0 0 Z " fill="#181818" transform="translate(905,902)"/>
<path d="M0 0 C2.125 0.9375 2.125 0.9375 4 2 C3.01 3.485 3.01 3.485 2 5 C0.68 4.34 -0.64 3.68 -2 3 C-2 2.34 -2 1.68 -2 1 C-1.34 0.67 -0.68 0.34 0 0 Z " fill="#121212" transform="translate(1291,858)"/>
<path d="M0 0 C0.33 0.66 0.66 1.32 1 2 C-0.65 3.65 -2.3 5.3 -4 7 C-4.66 6.34 -5.32 5.68 -6 5 C-4.02 3.35 -2.04 1.7 0 0 Z " fill="#1B1B1B" transform="translate(665,1307)"/>
<path d="M0 0 C2.31 0 4.62 0 7 0 C7.33 1.32 7.66 2.64 8 4 C2.25 2.25 2.25 2.25 0 0 Z " fill="#111111" transform="translate(784,684)"/>
<path d="M0 0 C0.99 0.33 1.98 0.66 3 1 C2.67 2.32 2.34 3.64 2 5 C1.01 5 0.02 5 -1 5 C-0.67 3.35 -0.34 1.7 0 0 Z " fill="#131313" transform="translate(713,1060)"/>
<path d="M0 0 C0.33 1.32 0.66 2.64 1 4 C0.34 4 -0.32 4 -1 4 C-1.33 4.66 -1.66 5.32 -2 6 C-3.32 6.33 -4.64 6.66 -6 7 C-4.02 4.69 -2.04 2.38 0 0 Z " fill="#292929" transform="translate(1007,984)"/>
</svg>